<?xml version="1.0" encoding="utf-8"?>
<!-- Generator: Adobe Illustrator 18.1.0, SVG Export Plug-In . SVG Version: 6.00 Build 0)  -->
<svg version="1.1" id="Calque_1" xmlns="http://www.w3.org/2000/svg" xmlns:xlink="http://www.w3.org/1999/xlink" x="0px" y="0px"
	 viewBox="-255 347 100 100" enable-background="new -255 347 100 100" xml:space="preserve">
<g>
	<polygon fill="#FFFFFF" points="-214.1,393.1 -246.4,382.5 -237.3,388.9 -205,399.6 	"/>
	<polygon fill="#FFFFFF" points="-236.9,418.5 -200.7,430.5 -200.7,402.8 -236.9,390.8 	"/>
	<path fill="#FFFFFF" d="M-213.5,391.5c0.1,0,0.2,0.1,0.2,0.1l1.3,0.9v-14.1l-17,7.9L-213.5,391.5z"/>
	<polygon fill="#FFFFFF" points="-199,402.7 -199,430.3 -174,418.6 -174,391 	"/>
	<polygon fill="#FFFFFF" points="-196,399.4 -173.7,389 -167.1,382.1 -189.4,392.6 	"/>
	<path fill="#FFFFFF" d="M-190.3,391.1l7.8-3.6l-27.7-9.1v15.4l10.3,7.3l9.4-9.7C-190.5,391.2-190.4,391.2-190.3,391.1z"/>
	<path fill="#FFFFFF" d="M-161.4,378.1c-0.3-0.4-0.8-0.7-1.3-0.9l0.8-1.3c0.4-0.6,0.4-1.3,0.2-1.9s-0.7-1.1-1.4-1.4l-37.9-12.5
		c-0.2-0.1-0.5-0.1-0.7-0.1c-0.8,0-1.5,0.4-1.9,1l-7.7,12.2l-8.3-11.1c-0.4-0.6-1.1-0.9-1.8-0.9c-0.3,0-0.6,0.1-0.9,0.2l-26.7,12.5
		c-0.6,0.3-1.1,0.8-1.2,1.5c-0.2,0.7,0,1.3,0.4,1.9l0.7,1l-1.9-0.6c-0.2-0.1-0.5-0.1-0.7-0.1c-0.8,0-1.6,0.5-2,1.2
		c-0.5,1-0.2,2.2,0.7,2.8l12.9,9.1l0.1,28.4c0,1,0.6,1.8,1.5,2.1l37.9,12.5c0.2,0.1,0.5,0.1,0.7,0.1c0.3,0,0.6-0.1,0.9-0.2
		l26.7-12.5c0.8-0.4,1.3-1.2,1.3-2l0-28.5l9.3-9.7C-160.9,380.2-160.8,379-161.4,378.1z M-162.6,380l-9.7,10l0,29.1
		c0,0.3-0.2,0.6-0.5,0.8l-26.7,12.5c0,0,0,0,0,0c-0.1,0-0.2,0.1-0.3,0.1c-0.1,0-0.2,0-0.3,0l-37.9-12.5c-0.4-0.1-0.6-0.4-0.6-0.8
		l-0.1-29l-13.5-9.5c-0.3-0.2-0.5-0.7-0.3-1.1c0.2-0.4,0.6-0.6,1-0.4l6,2l-3.4-4.5c-0.2-0.2-0.2-0.5-0.1-0.7
		c0.1-0.3,0.2-0.5,0.5-0.6l26.7-12.5c0.4-0.2,0.8-0.1,1,0.3l9.5,12.7l8.8-13.9c0.2-0.3,0.6-0.5,1-0.4l37.9,12.5
		c0.3,0.1,0.4,0.3,0.5,0.5c0.1,0.2,0.1,0.5-0.1,0.7l-2.8,4.4l2.2-1c0.4-0.2,0.8-0.1,1.1,0.3S-162.3,379.7-162.6,380z"/>
</g>
</svg>
