<svg xmlns="http://www.w3.org/2000/svg" xmlns:xlink="http://www.w3.org/1999/xlink" version="1.1" id="Layer_1" x="0px" y="0px" width="100px" height="100px" viewBox="0 0 100 100" enable-background="new 0 0 100 100" xml:space="preserve">
<path fill-rule="evenodd" clip-rule="evenodd" d="M67.262,86.119L50.5,90.31l-16.762-4.19L16.976,94.5V58.836l13.354-6.642  c0.692,1.054,1.403,2.1,2.125,3.139l-11.289,5.644v27.237l12.572-6.285l16.762,4.19l16.762-4.19l12.571,6.285V60.977l-10.4-6.933  c0.684-1.007,1.351-2.018,1.999-3.032l12.592,7.869V94.5L67.262,86.119z M69.357,62.318v14.1c0,0.729-0.469,1.32-1.048,1.32  s-1.048-0.592-1.048-1.32v-14.1c0-0.729,0.469-1.317,1.048-1.317S69.357,61.59,69.357,62.318z M52.596,80.608  c0,0.729-0.469,1.318-1.048,1.318c-0.577,0-1.048-0.59-1.048-1.318v-2.87l0,0c0,0,0.79-0.852,2.096-2.32V80.608z M35.833,62.318  v14.1c0,0.729-0.469,1.32-1.048,1.32s-1.047-0.592-1.047-1.32v-14.1c0-0.729,0.468-1.317,1.047-1.317S35.833,61.59,35.833,62.318z   M50.5,73.548c0,0-25.143-28.019-25.143-41.905C25.357,17.757,36.614,6.5,50.5,6.5c13.885,0,25.143,11.257,25.143,25.143  C75.643,45.529,50.5,73.548,50.5,73.548z M50.5,10.69c-11.572,0-20.952,9.498-20.952,21.214S50.5,67.262,50.5,67.262  s20.952-23.641,20.952-35.357S62.071,10.69,50.5,10.69z M40.024,29.548c0-5.786,4.691-10.477,10.476-10.477  c5.786,0,10.477,4.691,10.477,10.477c0,5.785-4.69,10.476-10.477,10.476C44.715,40.024,40.024,35.333,40.024,29.548z M56.786,29.548  c0-3.472-2.813-6.286-6.286-6.286c-3.471,0-6.286,2.814-6.286,6.286c0,3.471,2.814,6.286,6.286,6.286  C53.973,35.833,56.786,33.019,56.786,29.548z"/>
</svg>