<svg xmlns="http://www.w3.org/2000/svg" xmlns:xlink="http://www.w3.org/1999/xlink" version="1.1" id="Ebene_1" x="0px" y="0px" width="100px" height="100px" viewBox="0 0 100 100" enable-background="new 0 0 100 100" xml:space="preserve">
<path d="M82,87.352C82,88.262,81.263,89,80.353,89H1.647C0.738,89,0,88.262,0,87.352V29.648C0,28.738,0.738,28,1.647,28h78.705  C81.263,28,82,28.738,82,29.648V87.352z M73,37.648C73,36.738,72.263,36,71.353,36H9.647C8.738,36,8,36.738,8,37.648v41.704  C8,80.262,8.738,81,9.647,81h61.705C72.263,81,73,80.262,73,79.352V37.648z"/>
<g>
	<path d="M96.037,13.591c-0.061-0.905-0.851-1.595-1.756-1.535l-78.103,5.239c-0.904,0.061-1.595,0.667-1.534,1.573L15.001,24   h18.906l52.705-3.354c0.903-0.061,1.693,0.722,1.755,1.626l2.757,41.152c0.061,0.905-0.355,1.716-1.259,1.776L86,65.503v8.259   l12.64-0.867c0.903-0.06,1.456-0.849,1.396-1.754L96.037,13.591z"/>
</g>
<path d="M15.409,76.418c-0.906,0.001-1.125-0.522-0.485-1.164l10.036-10.096c0.639-0.643,1.843-0.875,2.675-0.516l2.629,1.138  c0.832,0.358,2.183,0.337,3.002-0.052l5.786-2.738c0.819-0.389,2.041-1.202,2.715-1.807l9.495-8.518  c0.675-0.605,1.786-0.613,2.469-0.018l4.108,3.588c0.684,0.596,1.881,0.707,2.661,0.245l6.153-3.675  c0.78-0.461,1.347-0.096,1.347,0.81v21.013c0,0.905-0.67,1.648-1.576,1.651L15.409,76.418z"/>
<circle cx="25.297" cy="50.227" r="6.479"/>
</svg>