<svg xmlns="http://www.w3.org/2000/svg" xmlns:xlink="http://www.w3.org/1999/xlink" version="1.1" id="Layer_1" x="0px" y="0px" viewBox="0 0 16 16" enable-background="new 0 0 16 16" xml:space="preserve" height="100px" width="100px">
<g>
	<path d="M15.9,6.7C16,6.5,16,6.2,15.9,6l-0.7-0.7c-0.1-0.1-0.2-0.1-0.4-0.1c-0.1,0-0.3,0-0.4,0.1L9,10.6V11v1h1.6L15.9,6.7z"/>
	<rect x="3" y="3" width="10" height="1"/>
	<polygon points="3,6 12.3,6 13,5.3 13,5 3,5  "/>
	<rect x="3" y="11" width="5" height="1"/>
	<polygon points="3,8 10.3,8 11.3,7 3,7  "/>
	<path d="M15,9v4c0,1.1-0.9,2-2,2H3c-1.1,0-2-0.9-2-2V3c0-1.1,0.9-2,2-2h10c1.1,0,2,0.9,2,2v1.2c0.3,0,0.6,0.2,0.9,0.4L16,4.7V3   c0-1.7-1.3-3-3-3H3C1.3,0,0,1.3,0,3v10c0,1.7,1.3,3,3,3h10c1.7,0,3-1.3,3-3V8L15,9z"/>
	<polygon points="3,10 8.3,10 8.4,9.9 9.3,9 3,9  "/>
</g>
</svg>