<svg xmlns="http://www.w3.org/2000/svg" xmlns:xlink="http://www.w3.org/1999/xlink" version="1.1" id="Layer_1" x="0px" y="0px" width="100px" height="100px" viewBox="0 0 100 100" enable-background="new 0 0 100 100" xml:space="preserve">
<g>
	<path fill="#000000" d="M89.899,20.392l-9.311-9.311c-0.75-0.75-1.768-1.171-2.828-1.171s-2.078,0.421-2.828,1.171L34.451,51.563   c-0.329,0.328-0.598,0.712-0.795,1.133l-8.189,17.5c-0.714,1.524-0.396,3.333,0.795,4.523c0.767,0.768,1.79,1.172,2.829,1.172   c0.573,0,1.152-0.123,1.694-0.377l17.5-8.189c0.421-0.197,0.805-0.466,1.133-0.795l40.481-40.481   C91.462,24.486,91.462,21.954,89.899,20.392z M44.258,60.377l-6.867,3.214l3.214-6.867l28.024-28.026l3.654,3.654L44.258,60.377z    M77.939,26.694l-3.653-3.653l3.475-3.475l3.653,3.654L77.939,26.694z"/>
	<path fill="#000000" d="M82.166,45.333c-2.209,0-4,1.791-4,4v27.334v2.969v2.489h-60V22h3.336H24.5h29.834c2.209,0,4-1.791,4-4   s-1.791-4-4-4H24.168h-2.666h-3.336c-4.418,0-8,3.582-8,8v60.125c0,4.418,3.582,8,8,8h60c4.418,0,8-3.582,8-8v-2.489v-2.969V49.333   C86.166,47.124,84.375,45.333,82.166,45.333z"/>
</g>
</svg>