<svg xmlns="http://www.w3.org/2000/svg" xmlns:xlink="http://www.w3.org/1999/xlink" version="1.1" id="Layer_1" x="0px" y="0px" width="100px" height="100px" viewBox="0 0 100 100" enable-background="new 0 0 100 100" xml:space="preserve">
<g>
	<polygon points="14.544,3.738 18.414,7.607 22.351,3.669 26.195,7.514 30.159,3.549 34.063,7.454 37.954,3.563 41.833,7.441    45.698,3.576 51.457,9.334 49.484,11.306 45.656,7.478 41.776,11.358 37.894,7.476 33.959,11.411 30.084,7.536 26.17,11.45    22.279,7.559 18.332,11.507 12.554,5.729  "/>
</g>
<g>
	<polygon points="86.423,5.707 80.645,11.485 76.695,7.537 72.807,11.428 68.893,7.514 65.018,11.389 61.082,7.454 57.201,11.336    53.32,7.456 49.492,11.285 47.52,9.312 53.277,3.554 57.145,7.42 61.021,3.542 64.912,7.432 68.816,3.527 72.781,7.492    76.626,3.647 80.562,7.585 84.432,3.716  "/>
</g>
<g>
	<polygon points="12.55,88.857 18.328,83.08 22.275,87.027 26.167,83.137 30.08,87.052 33.955,83.177 37.89,87.111 41.772,83.229    45.652,87.107 49.48,83.279 51.453,85.253 45.694,91.011 41.829,87.146 37.95,91.023 34.06,87.133 30.155,91.038 26.191,87.073    22.347,90.917 18.41,86.979 14.54,90.85  "/>
</g>
<g>
	<polygon points="84.428,90.87 80.561,87.002 76.622,90.939 72.777,87.096 68.812,91.061 64.908,87.154 61.02,91.046 57.141,87.167    53.275,91.032 47.516,85.273 49.488,83.303 53.316,87.131 57.197,83.251 61.079,87.133 65.014,83.198 68.889,87.073 72.802,83.158    76.691,87.05 80.641,83.102 86.419,88.88  "/>
</g>
<rect x="12.549" y="5.728" width="2.939" height="83.122"/>
<rect x="83.486" y="5.709" width="2.938" height="83.17"/>
<g>
	<path d="M49.671,43.638c-0.108-0.023-0.19-0.046-0.293-0.069v-3.704c1.712,0.276,3.522,1.026,5.21,2.214l3.291-4.646   c-2.301-1.846-5.064-2.903-8.501-3.112V31.07h-1.657v3.222c-5.463,0.146-8.803,3.278-8.803,7.583v0.068   c0,4.833,3.824,6.277,8.803,7.427v3.901c-2.219-0.283-4.332-1.213-6.258-2.746L37.8,54.898c2.638,2.361,6.163,3.656,9.921,3.886   v2.807h1.657v-2.772c5.509-0.146,9.146-2.996,9.146-7.717v-0.068C58.523,46.589,55.132,44.826,49.671,43.638z M45.566,41.333   v-0.071c0-0.804,0.715-1.451,2.154-1.512v3.388C46.047,42.629,45.566,42.158,45.566,41.333z M51.876,51.743   c0,0.975-0.878,1.567-2.498,1.618v-3.566c1.952,0.566,2.498,1.078,2.498,1.88V51.743z"/>
</g>
</svg>