<svg xmlns="http://www.w3.org/2000/svg" xmlns:xlink="http://www.w3.org/1999/xlink" version="1.1" id="Livello_2" x="0px" y="0px" width="100px" height="100px" viewBox="0 0 100 100" enable-background="new 0 0 100 100" xml:space="preserve">
<g>
	<path d="M79.5,85.5h-59c-7.168,0-13-5.832-13-13v-36h20v-22h65v58C92.5,79.668,86.668,85.5,79.5,85.5z M31.45,79.5H79.5   c3.859,0,7-3.141,7-7v-52h-53v52C33.5,75.075,32.747,77.479,31.45,79.5z M13.5,42.5v30c0,3.859,3.14,7,7,7s7-3.141,7-7v-30H13.5z"/>
</g>
<g>
	<rect x="38.5" y="25.5" width="43" height="4"/>
</g>
<g>
	<rect x="61.434" y="35.5" width="20.066" height="4"/>
</g>
<g>
	<rect x="61.434" y="45.5" width="20.066" height="4"/>
</g>
<g>
	<rect x="38.5" y="55.5" width="43" height="4"/>
</g>
<g>
	<rect x="38.5" y="65.5" width="43" height="4"/>
</g>
<g>
	<rect x="38.5" y="35.5" width="19" height="14"/>
</g>
</svg>